#!OML:ASF H:\Terrain\Patient Classification 1\Walking\liu\liu.ASF
:FULLY-SPECIFIED
:DEGREES
97
root 7.6953 16.2448 -12.4433 4.86575 5.66399 -3.76669
lowerback -3.79968 -1.71192 -0.901668
upperback -0.819815 -2.30605 3.80236
thorax 1.48031 -1.1645 4.30887
lowerneck -22.1582 -4.74881 -12.6747
upperneck 21.3929 -6.09628 14.2715
head 11.5111 -2.07557 6.47747
rclavicle 6.48535e-015 9.54166e-015
rhumerus -39.6458 -1.80925 -79.0437
rradius 20.4815
rwrist -6.94199
rhand -33.1565 -24.0549
rfingers 7.12502
rthumb -6.36532 -53.9392
lclavicle 6.48535e-015 9.54166e-015
lhumerus -27.6372 -11.7346 93.752
lradius 34.8909
lwrist 11.3672
lhand -16.1581 -25.8697
lfingers 7.12502
lthumb 10.0477 3.87042
rfemur -28.4189 1.68153 28.2522
rtibia 39.3911
rfoot -15.889 3.29055
rtoes -11.6645
lfemur -9.63725 8.55696 -14.0254
ltibia 67.8411
lfoot -2.40415 12.868
ltoes -19.3733
98
root 7.69448 16.2835 -12.2529 5.11236 5.45974 -3.31503
lowerback -3.8428 -1.53075 -1.57098
upperback -0.915659 -2.0354 3.77505
thorax 1.40556 -1.02951 4.67567
lowerneck -21.7312 -4.86242 -12.9429
upperneck 21.2148 -6.24521 14.4485
head 11.4032 -2.15994 6.55794
rclavicle -3.43649e-014 4.37326e-015
rhumerus -38.9981 -1.07929 -79.5883
rradius 21.0956
rwrist -8.1735
rhand -33.2771 -23.1201
rfingers 7.12502
rthumb -6.48169 -53.0009
lclavicle -3.43649e-014 4.37326e-015
lhumerus -28.4149 -11.0678 94.0007
lradius 33.958
lwrist 10.9422
lhand -15.5367 -25.356
lfingers 7.12502
lthumb 10.6471 4.35423
rfemur -27.5378 1.79359 27.8581
rtibia 38.6727
rfoot -16.1169 3.28698
rtoes -12.4274
lfemur -11.9428 8.41061 -15.0074
ltibia 69.3562
lfoot -3.37402 13.2693
ltoes -18.8519
99
root 7.6957 16.3332 -12.0591 5.209 5.18496 -3.28086
lowerback -3.80566 -1.33087 -1.77047
upperback -0.915913 -1.76139 3.82994
thorax 1.36649 -0.892445 4.8626
lowerneck -21.6811 -4.94909 -13.1306
upperneck 21.1934 -6.37124 14.681
head 11.4237 -2.20748 6.66122
rclavicle 1.56294e-014 -9.54166e-015
rhumerus -38.1146 -1.05954 -79.6226
rradius 21.6883
rwrist -7.64431
rhand -31.7196 -22.7295
rfingers 7.12502
rthumb -4.97801 -52.6511
lclavicle 1.56294e-014 -9.54166e-015
lhumerus -29.0762 -10.4696 94.1886
lradius 33.1473
lwrist 10.777
lhand -14.5921 -24.0366
lfingers 7.12502
lthumb 11.5581 5.62468
rfemur -26.3425 2.09718 27.8723
rtibia 37.7437
rfoot -16.3782 3.32792
rtoes -11.8054
lfemur -14.0421 8.43056 -15.4935
ltibia 70.6348
lfoot -3.65339 13.5882
ltoes -16.0687
100
root 7.69614 16.3952 -11.8558 5.09924 4.78211 -3.44318
lowerback -3.68835 -1.12862 -1.74524
upperback -0.823037 -1.49561 3.92372
thorax 1.3722 -0.760902 4.96196
lowerneck -21.4759 -4.97456 -13.2885
upperneck 21.009 -6.37664 14.7505
head 11.3247 -2.22259 6.70498
rclavicle 1.19022e-014 -3.97569e-016
rhumerus -37.0963 -0.97623 -79.7776
rradius 22.3313
rwrist -6.86554
rhand -29.669 -26.5403
rfingers 7.12502
rthumb -2.99778 -56.4989
lclavicle 1.19022e-014 -3.97569e-016
lhumerus -29.7628 -9.72804 94.255
lradius 32.49
lwrist 10.8321
lhand -13.5181 -22.0145
lfingers 7.12502
lthumb 12.5937 7.58592
rfemur -24.7928 2.54532 28.0925
rtibia 36.6655
rfoot -16.5609 3.36289
rtoes -11.1477
lfemur -15.7385 8.59692 -15.6789
ltibia 71.657
lfoot -4.8815 13.8081
ltoes -16.1575
101
root 7.70026 16.4511 -11.6509 4.91198 4.33145 -3.54577
lowerback -3.46085 -0.91144 -1.74226
upperback -0.73597 -1.20803 3.9851
thorax 1.30697 -0.617114 5.04194
lowerneck -21.1362 -4.97532 -13.1645
upperneck 20.6627 -6.34101 14.4416
head 11.1066 -2.24378 6.54665
rclavicle 8.19987e-015 -7.95139e-015
rhumerus -36.1912 -0.0708241 -80.3557
rradius 22.8988
rwrist -7.29364
rhand -30.2363 -29.615
rfingers 7.12502
rthumb -3.54567 -59.5652
lclavicle 8.19987e-015 -7.95139e-015
lhumerus -30.6924 -9.05456 94.29
lradius 31.6159
lwrist 10.4085
lhand -13.1992 -21.956
lfingers 7.12502
lthumb 12.9011 7.6252
rfemur -23.123 2.96035 28.2519
rtibia 35.5193
rfoot -16.4907 3.38879
rtoes -10.9623
lfemur -17.2737 8.79615 -15.9004
ltibia 72.4203
lfoot -5.67586 13.7177
ltoes -14.1266
102
root 7.70841 16.4874 -11.4647 5.05273 4.09397 -3.6892
lowerback -3.45319 -0.631575 -1.46604
upperback -0.702451 -0.843159 3.89796
thorax 1.29506 -0.432986 4.81059
lowerneck -21.5142 -5.08261 -12.8128
upperneck 20.7291 -6.50752 14.1903
head 11.2084 -2.30539 6.36262
rclavicle -1.86858e-014 6.36111e-015
rhumerus -35.6274 1.38699 -81.2771
rradius 23.87
rwrist -8.67591
rhand -31.9624 -29.0378
rfingers 7.12502
rthumb -5.21244 -58.9537
lclavicle -1.86858e-014 6.36111e-015
lhumerus -31.5651 -9.12581 94.2636
lradius 30.617
lwrist 9.55107
lhand -13.2112 -23.2607
lfingers 7.12502
lthumb 12.8896 6.32124
rfemur -21.9603 3.13792 28.467
rtibia 34.4276
rfoot -16.4583 3.34731
rtoes -11.6985
lfemur -19.3994 8.81072 -16.1703
ltibia 73.0645
lfoot -5.82877 13.8027
ltoes -9.64019
103
root 7.71461 16.5135 -11.2863 5.43976 3.83991 -3.99973
lowerback -3.69227 -0.321149 -0.941497
upperback -0.754448 -0.446174 3.76913
thorax 1.33293 -0.231293 4.39539
lowerneck -22.0535 -5.2047 -12.5592
upperneck 21.0612 -6.74701 14.2084
head 11.4676 -2.37025 6.30267
rclavicle -9.21864e-015 -3.61788e-014
rhumerus -35.111 2.57516 -82.231
rradius 24.8411
rwrist -9.85986
rhand -30.5724 -27.3121
rfingers 7.12502
rthumb -3.87025 -57.2567
lclavicle -9.21864e-015 -3.61788e-014
lhumerus -32.2667 -9.37297 94.0768
lradius 29.688
lwrist 8.66828
lhand -12.9877 -22.9532
lfingers 7.12502
lthumb 13.1051 6.61505
rfemur -21.2501 3.41129 28.8739
rtibia 33.5524
rfoot -16.6795 3.22158
rtoes -12.3809
lfemur -21.8633 8.91853 -16.2906
ltibia 73.5511
lfoot -7.05475 13.7154
ltoes -9.60153
